<svg xmlns="http://www.w3.org/2000/svg" width="20" height="20" viewBox="0 0 20 20">
    <g fill="none" fill-rule="evenodd">
        <path fill="#fff" fill-rule="nonzero" d="M17.394 2.174v2.362c0 1.068-.866 1.928-1.934 1.928h-1.22c-1.067 0-1.945-.86-1.945-1.928v-2.37H6.798v2.37c0 1.068-.878 1.928-1.945 1.928h-1.22c-1.067 0-1.933-.86-1.933-1.928V2.174c-.933.028-1.7.8-1.7 1.75v13.842c0 .966.784 1.76 1.75 1.76h15.593c.965 0 1.75-.795 1.75-1.76V3.923c0-.949-.766-1.72-1.7-1.749zm-.567 14.73c0 .417-.339.756-.756.756H2.989c-.418 0-.756-.339-.756-.756v-7.15c0-.419.338-.757.756-.757h13.082c.417 0 .756.338.756.756v7.15z"/>
        <path fill="#1F1F1F" fill-rule="nonzero" d="M3.647 5.198h1.206c.366 0 .663-.297.663-.663V.663C5.516.297 5.22 0 4.853 0H3.647c-.367 0-.663.297-.663.663v3.872c0 .366.296.663.663.663zM14.225 5.198h1.206c.366 0 .663-.297.663-.663V.663c0-.366-.297-.663-.663-.663h-1.206c-.366 0-.663.297-.663.663v3.872c0 .366.297.663.663.663z"/>
        <path fill="#1F1F1F" d="M0.984 8H17.984V18H0.984z"/>
        <path fill="#FFF" fill-rule="nonzero" d="M5.984 9.546c0-.302-.245-.546-.547-.546H3.53c-.302 0-.546.244-.546.546v1.907c0 .302.244.547.546.547h1.907c.302 0 .547-.245.547-.547V9.546zM5.984 14.546c0-.302-.245-.546-.547-.546H3.53c-.302 0-.546.244-.546.546v1.907c0 .302.244.547.546.547h1.907c.302 0 .547-.245.547-.547v-1.907zM10.984 9.546c0-.302-.245-.546-.547-.546H8.53c-.302 0-.546.244-.546.546v1.907c0 .302.244.547.546.547h1.907c.302 0 .547-.245.547-.547V9.546zM10.984 14.546c0-.302-.245-.546-.547-.546H8.53c-.302 0-.546.244-.546.546v1.907c0 .302.244.547.546.547h1.907c.302 0 .547-.245.547-.547v-1.907zM15.984 9.546c0-.302-.245-.546-.547-.546H13.53c-.302 0-.546.244-.546.546v1.907c0 .302.244.547.546.547h1.907c.302 0 .547-.245.547-.547V9.546zM15.984 14.546c0-.302-.245-.546-.547-.546H13.53c-.302 0-.546.244-.546.546v1.907c0 .302.244.547.546.547h1.907c.302 0 .547-.245.547-.547v-1.907z"/>
    </g>
</svg>


 