<svg xmlns="http://www.w3.org/2000/svg" width="18" height="18" viewBox="0 0 18 18">
    <path fill="#fff" fill-rule="evenodd" d="M14.526 12.782h-.919l-.325-.313c1.139-1.325 1.825-3.045 1.825-4.916C15.107 3.382 11.725 0 7.553 0 3.382 0 0 3.382 0 7.553c0 4.172 3.382 7.554 7.553 7.554 1.871 0 3.591-.686 4.916-1.825l.313.325v.919L16.27 18 18 16.269l-3.474-3.487zm-6.973 0c-2.893 0-5.229-2.335-5.229-5.229 0-2.893 2.336-5.229 5.23-5.229 2.893 0 5.228 2.336 5.228 5.23 0 2.893-2.335 5.228-5.229 5.228z"/>
</svg>
