<svg xmlns="http://www.w3.org/2000/svg" xmlns:xlink="http://www.w3.org/1999/xlink" width="48" height="48" viewBox="0 0 48 48">
  <defs>
    <clipPath id="clip-path">
      <rect id="Rectangle_2101" data-name="Rectangle 2101" width="48" height="48" transform="translate(16545 4481)" fill="#989898"/>
    </clipPath>
  </defs>
  <g id="Setting" transform="translate(-16545 -4481)" clip-path="url(#clip-path)">
    <path id="Setting-2" data-name="Setting" d="M30.038,56.154,31.226,60.9A4.32,4.32,0,0,0,35.2,64h3.2a4.32,4.32,0,0,0,3.974-3.1l1.187-4.742a3.075,3.075,0,0,1,3.85-2.221l4.694,1.344a4.32,4.32,0,0,0,4.678-1.891l1.6-2.774a4.328,4.328,0,0,0-.7-5l-3.514-3.4a3.072,3.072,0,0,1,0-4.448l3.507-3.4a4.323,4.323,0,0,0,.7-5l-1.6-2.774a4.319,4.319,0,0,0-4.675-1.891l-4.694,1.344a3.082,3.082,0,0,1-3.853-2.221L42.374,19.1A4.321,4.321,0,0,0,38.4,16H35.2a4.32,4.32,0,0,0-3.974,3.1L30.042,23.84a3.085,3.085,0,0,1-3.853,2.224L21.494,24.72a4.318,4.318,0,0,0-4.678,1.888l-1.6,2.774a4.324,4.324,0,0,0,.7,5l3.507,3.389a3.088,3.088,0,0,1,0,4.451l-3.514,3.4a4.328,4.328,0,0,0-.7,5l1.6,2.774a4.32,4.32,0,0,0,4.678,1.891l4.694-1.344a3.072,3.072,0,0,1,3.85,2.218ZM36.8,33.6A6.4,6.4,0,1,1,30.4,40,6.4,6.4,0,0,1,36.8,33.6Z" transform="translate(16532.201 4465)" fill="#989898"/>
  </g>
</svg>
